<?xml version="1.0" encoding="utf-8" standalone="no"?><!DOCTYPE svg PUBLIC "-//W3C//DTD SVG 20010904//EN" "http://www.w3.org/TR/2001/REC-SVG-20010904/DTD/svg10.dtd"><svg xmlns="http://www.w3.org/2000/svg" width="706" height="450" xmlns:xlink="http://www.w3.org/1999/xlink"><source><![CDATA[Note over basemapselector: User selects\nnew basemap
Note over basemapselector: Basemap and\nlabel update

basemapselector->map:basemapselector.basemap_changed
Note over map: Update Scalebar CSS

basemapselector->bookmarkLink:basemapselector.basemap_changed
Note over bookmarkLink: Update link URL
]]></source><desc>Created with Raphaël 2.1.0</desc><defs><path id="raphael-marker-block" d="M5,0 0,2.5 5,5z" stroke-linecap="round"></path><marker refY="2.5" refX="2.5" orient="auto" markerWidth="5" markerHeight="5" id="raphael-marker-endblock55"><use stroke="none" fill="#000" stroke-width="1.0000" transform="rotate(180 2.5 2.5) scale(1,1)" xlink:href="#raphael-marker-block"></use></marker></defs><rect stroke-width="2" style="" stroke="#000000" fill="none" ry="0" rx="0" r="0" height="39" width="164" y="20" x="10"></rect><rect style="" stroke="none" fill="#ffffff" ry="0" rx="0" r="0" height="19" width="144" y="30" x="20"></rect><text font-family="Andale Mono, monospace" font-size="16px" fill="#000000" stroke="none" font="10px &quot;Arial&quot;" text-anchor="middle" y="39.5" x="92" style="text-anchor: middle; font: 16px Andale Mono,monospace;"><tspan dy="4.5">basemapselector</tspan></text><rect stroke-width="2" style="" stroke="#000000" fill="none" ry="0" rx="0" r="0" height="39" width="164" y="391.4000015258789" x="10"></rect><rect style="" stroke="none" fill="#ffffff" ry="0" rx="0" r="0" height="19" width="144" y="401.3999938964844" x="20"></rect><text font-family="Andale Mono, monospace" font-size="16px" fill="#000000" stroke="none" font="10px &quot;Arial&quot;" text-anchor="middle" y="410.9000015258789" x="92" style="text-anchor: middle; font: 16px Andale Mono,monospace;"><tspan dy="4.500007629394531">basemapselector</tspan></text><path stroke-width="2" d="M92,59L92,391.4000015258789" stroke="#000000" fill="none" style=""></path><rect stroke-width="2" style="" stroke="#000000" fill="none" ry="0" rx="0" r="0" height="39" width="48.79999923706055" y="20" x="385.20000648498535"></rect><rect style="" stroke="none" fill="#ffffff" ry="0" rx="0" r="0" height="19" width="28.799999237060547" y="30" x="395.20001220703125"></rect><text font-family="Andale Mono, monospace" font-size="16px" fill="#000000" stroke="none" font="10px &quot;Arial&quot;" text-anchor="middle" y="39.5" x="409.6000061035156" style="text-anchor: middle; font: 16px Andale Mono,monospace;"><tspan dy="4.5">map</tspan></text><rect stroke-width="2" style="" stroke="#000000" fill="none" ry="0" rx="0" r="0" height="39" width="48.79999923706055" y="391.4000015258789" x="385.20000648498535"></rect><rect style="" stroke="none" fill="#ffffff" ry="0" rx="0" r="0" height="19" width="28.799999237060547" y="401.3999938964844" x="395.20001220703125"></rect><text font-family="Andale Mono, monospace" font-size="16px" fill="#000000" stroke="none" font="10px &quot;Arial&quot;" text-anchor="middle" y="410.9000015258789" x="409.6000061035156" style="text-anchor: middle; font: 16px Andale Mono,monospace;"><tspan dy="4.500007629394531">map</tspan></text><path stroke-width="2" d="M409.6000061035156,59L409.6000061035156,391.4000015258789" stroke="#000000" fill="none" style=""></path><rect stroke-width="2" style="" stroke="#000000" fill="none" ry="0" rx="0" r="0" height="39" width="135.1999969482422" y="20" x="454.0000057220459"></rect><rect style="" stroke="none" fill="#ffffff" ry="0" rx="0" r="0" height="19" width="115.19999694824219" y="30" x="463.9999694824219"></rect><text font-family="Andale Mono, monospace" font-size="16px" fill="#000000" stroke="none" font="10px &quot;Arial&quot;" text-anchor="middle" y="39.5" x="521.600004196167" style="text-anchor: middle; font: 16px Andale Mono,monospace;"><tspan dy="4.5">bookmarkLink</tspan></text><rect stroke-width="2" style="" stroke="#000000" fill="none" ry="0" rx="0" r="0" height="39" width="135.1999969482422" y="391.4000015258789" x="454.0000057220459"></rect><rect style="" stroke="none" fill="#ffffff" ry="0" rx="0" r="0" height="19" width="115.19999694824219" y="401.3999938964844" x="463.9999694824219"></rect><text font-family="Andale Mono, monospace" font-size="16px" fill="#000000" stroke="none" font="10px &quot;Arial&quot;" text-anchor="middle" y="410.9000015258789" x="521.600004196167" style="text-anchor: middle; font: 16px Andale Mono,monospace;"><tspan dy="4.500007629394531">bookmarkLink</tspan></text><path stroke-width="2" d="M521.600004196167,59L521.600004196167,391.4000015258789" stroke="#000000" fill="none" style=""></path><rect stroke-width="2" style="" stroke="#000000" fill="none" ry="0" rx="0" r="0" height="48.20000076293945" width="125.19999694824219" y="79" x="29.400001525878906"></rect><rect style="" stroke="none" fill="#ffffff" ry="0" rx="0" r="0" height="38.19999694824219" width="115.20000457763672" y="84" x="34.400001525878906"></rect><text font-family="Andale Mono, monospace" font-size="16px" fill="#000000" stroke="none" font="10px &quot;Arial&quot;" text-anchor="middle" y="103.10000038146973" x="92" style="text-anchor: middle; font: 16px Andale Mono,monospace;"><tspan dy="-5.100000381469727">User selects</tspan><tspan x="92" dy="19.2">new basemap</tspan></text><rect stroke-width="2" style="" stroke="#000000" fill="none" ry="0" rx="0" r="0" height="48.20000076293945" width="125.19999694824219" y="147.20000076293945" x="29.400001525878906"></rect><rect style="" stroke="none" fill="#ffffff" ry="0" rx="0" r="0" height="38.20001220703125" width="115.20000457763672" y="152.1999969482422" x="34.400001525878906"></rect><text font-family="Andale Mono, monospace" font-size="16px" fill="#000000" stroke="none" font="10px &quot;Arial&quot;" text-anchor="middle" y="171.30000114440918" x="92" style="text-anchor: middle; font: 16px Andale Mono,monospace;"><tspan dy="-5.100000381469727">Basemap and</tspan><tspan x="92" dy="19.2">label update</tspan></text><rect style="" stroke="none" fill="#ffffff" ry="0" rx="0" r="0" height="19" width="297.6000061035156" y="210.89999389648438" x="102"></rect><text font-family="Andale Mono, monospace" font-size="16px" fill="#000000" stroke="none" font="10px &quot;Arial&quot;" text-anchor="middle" y="220.4000015258789" x="250.8000030517578" style="text-anchor: middle; font: 16px Andale Mono,monospace;"><tspan dy="4.500007629394531">basemapselector.basemap_changed</tspan></text><path stroke-dasharray="0" marker-end="url(#raphael-marker-endblock55)" stroke-width="2" d="M92,234.4000015258789C92,234.4000015258789,364.1339508498263,234.4000015258789,404.5952731319416,234.4000015258789" stroke="#000000" fill="none" style=""></path><rect stroke-width="2" style="" stroke="#000000" fill="none" ry="0" rx="0" r="0" height="29" width="192.39999389648438" y="254.4000015258789" x="313.40000915527344"></rect><rect style="" stroke="none" fill="#ffffff" ry="0" rx="0" r="0" height="19" width="182.39999389648438" y="259.3999938964844" x="318.3999938964844"></rect><text font-family="Andale Mono, monospace" font-size="16px" fill="#000000" stroke="none" font="10px &quot;Arial&quot;" text-anchor="middle" y="268.9000015258789" x="409.6000061035156" style="text-anchor: middle; font: 16px Andale Mono,monospace;"><tspan dy="4.500007629394531">Update Scalebar CSS</tspan></text><rect style="" stroke="none" fill="#ffffff" ry="0" rx="0" r="0" height="19" width="297.6000061035156" y="298.8999938964844" x="157.99998474121094"></rect><text font-family="Andale Mono, monospace" font-size="16px" fill="#000000" stroke="none" font="10px &quot;Arial&quot;" text-anchor="middle" y="308.4000015258789" x="306.8000020980835" style="text-anchor: middle; font: 16px Andale Mono,monospace;"><tspan dy="4.500007629394531">basemapselector.basemap_changed</tspan></text><path stroke-dasharray="0" marker-end="url(#raphael-marker-endblock55)" stroke-width="2" d="M92,322.4000015258789C92,322.4000015258789,468.69369847357666,322.4000015258789,516.6081068975839,322.4000015258789" stroke="#000000" fill="none" style=""></path><rect stroke-width="2" style="" stroke="#000000" fill="none" ry="0" rx="0" r="0" height="29" width="154" y="342.4000015258789" x="444.600004196167"></rect><rect style="" stroke="none" fill="#ffffff" ry="0" rx="0" r="0" height="19" width="144" y="347.3999938964844" x="449.5999755859375"></rect><text font-family="Andale Mono, monospace" font-size="16px" fill="#000000" stroke="none" font="10px &quot;Arial&quot;" text-anchor="middle" y="356.9000015258789" x="521.600004196167" style="text-anchor: middle; font: 16px Andale Mono,monospace;"><tspan dy="4.500007629394531">Update link URL</tspan></text></svg>